<svg width="172" height="34" viewBox="0 0 172 34" fill="none" xmlns="http://www.w3.org/2000/svg">
<path d="M26.2793 15.4119C25.801 15.8711 25.4347 16.4253 25.2065 17.0351C24.9783 17.6448 24.8938 18.2951 24.9591 18.9396L24.9364 18.9179C25.0035 19.6765 24.8963 20.4399 24.6223 21.1549C24.3482 21.8699 23.914 22.5192 23.3499 23.0575C22.7857 23.5958 22.1052 24.0101 21.3559 24.2716C20.6066 24.5331 19.8066 24.6354 19.0116 24.5713L19.0343 24.593C18.0833 24.5086 17.1282 24.706 16.2991 25.1585C15.4701 25.611 14.8075 26.2964 14.4016 27.1214C13.9958 27.9464 13.8665 28.8707 14.0314 29.7684C14.1962 30.666 14.6472 31.4933 15.3229 32.1375C15.9985 32.7816 16.8659 33.2112 17.8068 33.3677C18.7477 33.5242 19.7163 33.4 20.5805 33.012C21.4447 32.624 22.1625 31.9911 22.6359 31.1996C23.1094 30.4081 23.3154 29.4966 23.2261 28.5892L23.2501 28.6109C23.183 27.8523 23.2901 27.0889 23.5642 26.3739C23.8382 25.6589 24.2724 25.0096 24.8366 24.4713C25.4007 23.933 26.0812 23.5186 26.8305 23.2572C27.5798 22.9957 28.3798 22.8934 29.1748 22.9574L29.1509 22.9358C29.9277 23.0024 30.7096 22.8809 31.4241 22.5824C32.1386 22.284 32.7625 21.8182 33.2382 21.2284C33.7138 20.6386 34.0257 19.9437 34.145 19.2082C34.2642 18.4727 34.187 17.7204 33.9204 17.021C33.6538 16.3216 33.2065 15.6977 32.62 15.2072C32.0334 14.7166 31.3266 14.3753 30.5649 14.2148C29.8033 14.0544 29.0116 14.0799 28.2631 14.2892C27.5146 14.4985 26.8336 14.8846 26.2831 15.4119H26.2793Z" fill="#1E1B1B"/>
<path d="M16.9678 21.5004L16.9439 21.4784C17.6196 21.5445 18.3019 21.4639 18.9417 21.2425C19.5814 21.021 20.1624 20.6642 20.6428 20.1978C21.1232 19.7315 21.4909 19.1672 21.7193 18.5459C21.9478 17.9245 22.0312 17.2616 21.9636 16.6051L21.9876 16.6272C21.9205 15.8548 22.0277 15.0775 22.3017 14.3495C22.5757 13.6216 23.01 12.9605 23.5741 12.4124C24.1383 11.8643 24.8188 11.4424 25.568 11.1762C26.3173 10.9099 27.1174 10.8058 27.9124 10.871L27.8884 10.8489C28.8395 10.9357 29.7949 10.7353 30.6245 10.2752C31.454 9.81497 32.1172 9.11739 32.5236 8.27754C32.9301 7.4377 33.06 6.49649 32.8956 5.58229C32.7312 4.66809 32.2806 3.8254 31.6051 3.16918C30.9297 2.51295 30.0623 2.07513 29.1214 1.91543C28.1804 1.75573 27.2116 1.88193 26.3471 2.27681C25.4827 2.6717 24.7647 3.31605 24.291 4.12197C23.8174 4.92788 23.6111 5.85614 23.7004 6.78012L23.6777 6.75682C23.7451 7.52924 23.638 8.30664 23.3641 9.03471C23.0901 9.76278 22.6559 10.424 22.0917 10.9721C21.5275 11.5203 20.8469 11.9421 20.0975 12.2083C19.3481 12.4744 18.548 12.5784 17.7529 12.513L17.7757 12.5363C17.1 12.4701 16.4176 12.5507 15.7779 12.7722C15.1381 12.9936 14.5571 13.3505 14.0767 13.8168C13.5963 14.2832 13.2286 14.8474 13.0002 15.4688C12.7717 16.0901 12.6883 16.753 12.7559 17.4095L12.7332 17.3875C12.8 18.1598 12.6927 18.937 12.4186 19.6649C12.1445 20.3927 11.7103 21.0538 11.1462 21.6018C10.5821 22.1499 9.90168 22.5717 9.15248 22.838C8.40329 23.1043 7.60332 23.2086 6.80837 23.1436L6.83109 23.1657C5.88004 23.0789 4.92459 23.2793 4.09507 23.7395C3.26554 24.1997 2.60232 24.8973 2.19587 25.7371C1.78941 26.5769 1.65952 27.5182 1.82389 28.4324C1.98827 29.3466 2.43892 30.1892 3.11437 30.8455C3.78982 31.5017 4.65719 31.9395 5.59817 32.0992C6.53915 32.2589 7.50793 32.1327 8.37237 31.7378C9.23682 31.3429 9.95484 30.6986 10.4285 29.8927C10.9022 29.0868 11.1084 28.1585 11.0191 27.2345L11.0431 27.2566C10.976 26.4842 11.0831 25.7069 11.3572 24.979C11.6312 24.251 12.0654 23.5899 12.6296 23.0418C13.1937 22.4937 13.8742 22.0718 14.6235 21.8056C15.3728 21.5394 16.1728 21.4352 16.9678 21.5004V21.5004Z" fill="#1E1B1B"/>
<path d="M8.50874 18.6736C8.98714 18.2145 9.35341 17.6603 9.58142 17.0505C9.80942 16.4407 9.89353 15.7904 9.82774 15.146L9.85172 15.1677C9.78456 14.4088 9.89181 13.6452 10.166 12.93C10.4401 12.2149 10.8746 11.5654 11.439 11.0271C12.0035 10.4887 12.6843 10.0744 13.4339 9.81315C14.1835 9.55185 14.9838 9.44984 15.779 9.51424L15.7551 9.49257C16.7058 9.57755 17.6608 9.38065 18.49 8.92872C19.3191 8.47679 19.982 7.79182 20.3882 6.96723C20.7944 6.14264 20.9242 5.21857 20.7598 4.32102C20.5954 3.42348 20.1449 2.59616 19.4697 1.95188C18.7945 1.3076 17.9275 0.877732 16.9868 0.720892C16.0462 0.564052 15.0778 0.687876 14.2136 1.07548C13.3494 1.46308 12.6316 2.09559 12.158 2.88675C11.6843 3.67792 11.478 4.58923 11.5671 5.4964L11.5443 5.47472C11.6114 6.23331 11.5043 6.99673 11.2302 7.71171C10.9562 8.42668 10.522 9.07598 9.95783 9.61429C9.39368 10.1526 8.71321 10.5669 7.96392 10.8284C7.21462 11.0899 6.41455 11.1922 5.61955 11.1281L5.64227 11.1498C4.86547 11.0833 4.08366 11.205 3.36928 11.5036C2.65489 11.8022 2.03105 12.268 1.55557 12.8579C1.08008 13.4478 0.768336 14.1427 0.649215 14.8782C0.530094 15.6136 0.607453 16.3659 0.874125 17.0652C1.1408 17.7645 1.58815 18.3883 2.17474 18.8788C2.76132 19.3692 3.46816 19.7105 4.22974 19.8709C4.99133 20.0313 5.78302 20.0056 6.53146 19.7963C7.2799 19.5871 7.96086 19.2009 8.51126 18.6736H8.50874Z" fill="#1E1B1B"/>
<path d="M47.6079 6.97192H51.3566V24.28H47.6079V6.97192Z" fill="#1E1B1B"/>
<path d="M53.4797 19.0108C53.4744 17.6951 53.8584 16.4075 54.5829 15.3109C55.3074 14.2144 56.3399 13.3584 57.5496 12.8513C58.7593 12.3441 60.0917 12.2087 61.3782 12.4621C62.6646 12.7156 63.8472 13.3465 64.776 14.275C65.7049 15.2034 66.3383 16.3877 66.596 17.6777C66.8537 18.9677 66.7241 20.3055 66.2236 21.5215C65.7231 22.7376 64.8743 23.7772 63.7846 24.5087C62.6949 25.2402 61.4134 25.6307 60.1025 25.6307C59.2322 25.6407 58.3687 25.4764 57.5625 25.1476C56.7562 24.8188 56.0234 24.332 55.4067 23.7156C54.7901 23.0993 54.3021 22.3657 53.9712 21.5579C53.6403 20.7501 53.4732 19.8842 53.4797 19.0108ZM62.9765 19.0108C62.9609 18.4437 62.779 17.8938 62.4536 17.4298C62.1283 16.9659 61.6739 16.6085 61.1473 16.4023C60.6206 16.1961 60.0451 16.1503 59.4926 16.2706C58.9402 16.3909 58.4353 16.6719 58.0412 17.0786C57.647 17.4853 57.3811 17.9996 57.2765 18.5571C57.172 19.1147 57.2336 19.6908 57.4536 20.2134C57.6735 20.736 58.0421 21.182 58.5133 21.4955C58.9844 21.809 59.5372 21.9762 60.1025 21.9762C60.4896 21.9866 60.8747 21.9163 61.2334 21.7699C61.5922 21.6235 61.9168 21.404 62.1868 21.1254C62.4569 20.8468 62.6664 20.5151 62.8024 20.1511C62.9383 19.7872 62.9976 19.3989 62.9765 19.0108Z" fill="#1E1B1B"/>
<path d="M81.6658 12.7406V24.6479C81.6658 28.861 78.3917 30.642 75.0683 30.642C73.8981 30.7299 72.7265 30.4927 71.6818 29.9565C70.6372 29.4202 69.7598 28.6055 69.146 27.6019L72.3444 25.7461C72.6024 26.2693 73.0135 26.7009 73.5226 26.9832C74.0317 27.2655 74.6146 27.385 75.1932 27.3257C75.5631 27.3772 75.9397 27.3445 76.2952 27.2301C76.6507 27.1157 76.9761 26.9226 77.2472 26.665C77.5183 26.4074 77.7283 26.0919 77.8615 25.7419C77.9947 25.3918 78.0478 25.0162 78.0168 24.6428V23.4964C77.5778 24.0355 77.0191 24.4637 76.3854 24.7468C75.7517 25.03 75.0606 25.1601 74.3678 25.1267C72.7191 25.0745 71.1553 24.3806 70.0075 23.1917C68.8596 22.0028 68.2178 20.4124 68.2178 18.757C68.2178 17.1015 68.8596 15.5111 70.0075 14.3222C71.1553 13.1333 72.7191 12.4394 74.3678 12.3872C75.0606 12.3538 75.7517 12.4839 76.3854 12.7671C77.0191 13.0502 77.5778 13.4784 78.0168 14.0175V12.7381L81.6658 12.7406ZM78.0181 18.7589C78.0433 18.1525 77.8871 17.5525 77.5696 17.0361C77.2521 16.5196 76.7879 16.1103 76.2367 15.8608C75.6855 15.6113 75.0725 15.5331 74.4766 15.6362C73.8808 15.7394 73.3293 16.0191 72.8931 16.4394C72.457 16.8597 72.1562 17.4015 72.0294 17.9948C71.9027 18.5882 71.9557 19.206 72.1818 19.7688C72.4079 20.3317 72.7966 20.8137 73.298 21.153C73.7994 21.4922 74.3904 21.6731 74.9951 21.6723C75.3889 21.6999 75.7842 21.6444 76.1554 21.5094C76.5266 21.3743 76.8655 21.1628 77.1503 20.8883C77.4351 20.6139 77.6594 20.2826 77.8089 19.9158C77.9583 19.549 78.0296 19.1549 78.0181 18.7589Z" fill="#1E1B1B"/>
<path d="M83.7888 19.0108C83.7835 17.6951 84.1675 16.4075 84.892 15.3109C85.6165 14.2144 86.649 13.3584 87.8587 12.8513C89.0684 12.3441 90.4008 12.2087 91.6873 12.4621C92.9737 12.7156 94.1562 13.3465 95.0851 14.275C96.014 15.2034 96.6474 16.3877 96.9051 17.6777C97.1628 18.9677 97.0332 20.3055 96.5327 21.5215C96.0322 22.7376 95.1834 23.7772 94.0937 24.5087C93.004 25.2402 91.7225 25.6307 90.4115 25.6307C89.5413 25.6407 88.6778 25.4764 87.8716 25.1476C87.0653 24.8188 86.3324 24.332 85.7158 23.7156C85.0992 23.0993 84.6112 22.3657 84.2803 21.5579C83.9494 20.7501 83.7823 19.8842 83.7888 19.0108ZM93.2856 19.0108C93.2699 18.4437 93.0881 17.8938 92.7627 17.4298C92.4374 16.9659 91.983 16.6085 91.4563 16.4023C90.9297 16.1961 90.3542 16.1503 89.8017 16.2706C89.2493 16.3909 88.7444 16.6719 88.3503 17.0786C87.9561 17.4853 87.6901 17.9996 87.5856 18.5571C87.4811 19.1147 87.5427 19.6908 87.7627 20.2134C87.9826 20.736 88.3512 21.182 88.8223 21.4955C89.2935 21.809 89.8462 21.9762 90.4115 21.9762C90.7987 21.9866 91.1838 21.9163 91.5425 21.7699C91.9013 21.6235 92.2259 21.404 92.4959 21.1254C92.766 20.8468 92.9755 20.5151 93.1114 20.1511C93.2473 19.7872 93.3066 19.3989 93.2856 19.0108Z" fill="#1E1B1B"/>
<path d="M98.7827 9.37987C98.7827 8.93342 98.9146 8.49699 99.1618 8.12578C99.4089 7.75457 99.7602 7.46524 100.171 7.29439C100.582 7.12354 101.034 7.07883 101.471 7.16593C101.907 7.25303 102.308 7.46802 102.622 7.78371C102.937 8.0994 103.151 8.50162 103.238 8.93949C103.325 9.37737 103.28 9.83124 103.11 10.2437C102.94 10.6562 102.651 11.0087 102.282 11.2568C101.912 11.5048 101.477 11.6372 101.032 11.6372C100.437 11.6312 99.8686 11.3915 99.448 10.9695C99.0275 10.5474 98.7886 9.97671 98.7827 9.37987ZM99.1614 12.7405H102.911V25.2811H99.1563L99.1614 12.7405Z" fill="#1E1B1B"/>
<path d="M119.098 19.0108C119.141 19.8396 119.021 20.6688 118.744 21.4507C118.467 22.2327 118.038 22.9519 117.483 23.5671C116.928 24.1824 116.257 24.6814 115.51 25.0355C114.762 25.3897 113.951 25.5919 113.125 25.6307C112.431 25.6687 111.736 25.5511 111.092 25.2865C110.449 25.0218 109.871 24.6167 109.403 24.1005V30.2961H105.654V12.7404H109.403V13.9185C109.872 13.4027 110.449 12.9979 111.093 12.7334C111.736 12.469 112.431 12.3515 113.125 12.3896C113.951 12.4281 114.762 12.6303 115.51 12.9845C116.258 13.3387 116.929 13.8378 117.484 14.4532C118.039 15.0686 118.468 15.788 118.745 16.5702C119.022 17.3524 119.142 18.1818 119.098 19.0108ZM115.349 19.0108C115.335 18.4238 115.148 17.8543 114.812 17.3734C114.477 16.8925 114.007 16.5217 113.463 16.3073C112.918 16.0928 112.322 16.0444 111.751 16.1679C111.179 16.2915 110.656 16.5816 110.247 17.0019C109.839 17.4222 109.563 17.9541 109.454 18.531C109.346 19.1079 109.409 19.7041 109.636 20.245C109.864 20.786 110.245 21.2477 110.732 21.5723C111.22 21.8969 111.792 22.07 112.377 22.0699C112.778 22.0878 113.179 22.0204 113.553 21.872C113.927 21.7235 114.265 21.4975 114.546 21.2086C114.827 20.9198 115.043 20.5746 115.182 20.1959C115.32 19.8171 115.377 19.4132 115.349 19.0108Z" fill="#1E1B1B"/>
<path d="M130.666 21.5178C130.666 24.4021 128.168 25.6308 125.469 25.6308C124.379 25.7299 123.284 25.4985 122.326 24.9665C121.368 24.4344 120.592 23.6263 120.096 22.6464L123.344 20.7907C123.475 21.2436 123.757 21.6376 124.143 21.9068C124.529 22.1761 124.996 22.3044 125.464 22.2702C126.363 22.2702 126.814 21.994 126.814 21.4937C126.814 20.113 120.665 20.8413 120.665 16.5028C120.665 13.7679 122.965 12.3897 125.564 12.3897C126.541 12.3587 127.508 12.5912 128.365 13.0631C129.222 13.535 129.937 14.229 130.436 15.0726L127.238 16.803C127.097 16.4745 126.864 16.1947 126.566 15.9985C126.269 15.8023 125.92 15.6984 125.564 15.6997C124.914 15.6997 124.514 15.953 124.514 16.4014C124.519 17.8316 130.666 16.8777 130.666 21.5178Z" fill="#1E1B1B"/>
<path d="M144.36 12.7407V25.2814H140.611V24.102C140.179 24.6224 139.629 25.0324 139.009 25.2984C138.388 25.5644 137.713 25.6788 137.039 25.6322C134.515 25.6322 132.369 23.8271 132.369 20.4386V12.7407H136.118V19.8876C136.086 20.1863 136.12 20.4882 136.217 20.7724C136.314 21.0567 136.471 21.3163 136.678 21.5333C136.885 21.7503 137.136 21.9195 137.415 22.0291C137.693 22.1386 137.992 22.1859 138.291 22.1677C139.666 22.1677 140.615 21.3659 140.615 19.5849V12.7445L144.36 12.7407Z" fill="#1E1B1B"/>
<path d="M165.855 17.5808V25.28H162.106V17.9063C162.106 16.6523 161.507 15.8504 160.308 15.8504C159.058 15.8504 158.358 16.7283 158.358 18.2078V25.28H154.61V17.9063C154.61 16.6523 154.01 15.8504 152.81 15.8504C151.561 15.8504 150.861 16.7283 150.861 18.2078V25.28H147.113V12.7393H150.861V13.892C151.25 13.3807 151.76 12.9751 152.345 12.7124C152.93 12.4498 153.571 12.3384 154.21 12.3884C154.851 12.357 155.49 12.4928 156.064 12.7827C156.637 13.0727 157.126 13.5068 157.483 14.0428C157.898 13.482 158.448 13.0362 159.082 12.7468C159.716 12.4575 160.412 12.3342 161.107 12.3884C163.976 12.3897 165.855 14.4456 165.855 17.5808Z" fill="#1E1B1B"/>
<path d="M169.026 12.6633C170.562 12.6633 171.807 11.4134 171.807 9.87146C171.807 8.32955 170.562 7.07959 169.026 7.07959C167.489 7.07959 166.244 8.32955 166.244 9.87146C166.244 11.4134 167.489 12.6633 169.026 12.6633Z" fill="#1E1B1B"/>
</svg>
